<?xml version="1.0" standalone="no"?>
<!DOCTYPE svg PUBLIC "-//W3C//DTD SVG 20010904//EN"
 "http://www.w3.org/TR/2001/REC-SVG-20010904/DTD/svg10.dtd">
<svg version="1.0" xmlns="http://www.w3.org/2000/svg"
 width="187.000000pt" height="300.000000pt" viewBox="0 0 187.000000 300.000000"
 preserveAspectRatio="xMidYMid meet">
<metadata>
Created by potrace 1.10, written by Peter Selinger 2001-2011
</metadata>
<g transform="translate(0.000000,300.000000) scale(0.100000,-0.100000)"
fill="#000000" stroke="none">
<path d="M811 2744 c-87 -23 -106 -36 -104 -66 2 -33 62 -407 69 -429 3 -12
-14 -26 -68 -51 -40 -20 -97 -55 -126 -78 -67 -54 -142 -160 -172 -242 -29
-78 -36 -88 -63 -85 -19 2 -22 -5 -29 -53 -5 -34 -3 -82 5 -125 21 -125 15
-181 -26 -256 -41 -73 -46 -105 -19 -113 33 -11 87 -75 87 -104 0 -19 6 -28
20 -30 44 -9 110 -113 99 -156 -9 -37 14 -41 24 -4 7 26 4 42 -14 78 -24 48
-68 100 -84 100 -6 0 -10 10 -10 22 0 13 -21 43 -51 74 -58 58 -59 72 -15 136
13 20 22 39 19 42 -3 2 -1 11 3 18 15 23 15 92 1 165 -18 97 -9 158 29 193 16
14 29 30 29 35 1 19 48 110 85 165 37 53 130 150 145 150 4 0 19 8 33 18 15
11 42 24 60 30 18 6 40 18 48 27 13 12 19 13 30 4 11 -9 14 -8 14 3 0 22 -40
239 -50 273 -5 17 -20 68 -34 114 -14 47 -24 87 -21 89 2 2 13 -11 24 -29 l20
-33 -5 35 c-6 33 -4 37 22 44 65 17 82 12 100 -28 22 -49 50 -47 78 6 20 37
21 38 65 31 59 -8 61 -10 61 -42 l0 -26 16 22 c27 39 32 24 12 -35 -10 -32
-22 -83 -25 -113 -3 -30 -12 -68 -20 -85 -11 -20 -12 -30 -4 -33 6 -2 11 -13
10 -25 0 -21 -1 -21 -8 -2 -6 15 -11 4 -20 -46 -14 -82 -14 -132 -1 -124 6 4
8 11 5 16 -10 14 -1 11 35 -16 19 -14 42 -25 52 -25 10 0 18 -4 18 -10 0 -5
12 -13 26 -16 32 -8 164 -112 164 -128 0 -3 15 -26 34 -50 18 -24 42 -68 52
-97 11 -31 34 -69 56 -90 l37 -36 -4 -94 c-2 -52 -6 -116 -8 -144 -4 -49 7
-96 47 -187 l16 -37 -66 -75 -66 -76 -3 -109 c-1 -60 -6 -114 -10 -120 -3 -7
-8 -59 -9 -116 -2 -82 -7 -109 -20 -124 -15 -16 -48 -67 -97 -150 -8 -14 -18
-30 -22 -35 -4 -6 -19 -27 -33 -46 l-25 -35 7 55 c4 30 12 73 19 95 36 114 47
240 28 330 -8 39 -15 76 -15 83 -1 6 -5 12 -10 12 -4 0 -8 6 -8 14 0 7 -12 29
-27 48 -16 19 -39 50 -53 68 -14 18 -31 39 -38 47 -16 15 -12 16 56 13 31 -1
57 7 97 29 l55 31 10 -22 c5 -13 19 -36 30 -53 l22 -30 -6 35 c-8 44 -45 120
-58 120 -6 0 -19 -11 -29 -24 -27 -34 -103 -69 -131 -60 -13 4 -42 20 -65 36
-41 27 -42 28 -53 9 -5 -11 -10 -25 -10 -31 0 -6 31 -46 69 -91 38 -44 81 -99
95 -124 38 -63 57 -176 45 -260 -15 -108 -73 -350 -119 -499 -21 -65 -20 -81
3 -44 88 145 268 434 295 472 32 46 34 51 23 87 -9 31 -9 62 4 149 8 61 15
136 15 166 0 53 3 60 52 118 29 33 61 68 72 78 15 12 17 20 9 30 -5 7 -18 36
-29 63 -10 28 -24 60 -32 72 -10 16 -12 38 -7 80 3 32 7 112 8 178 l2 120 -31
3 c-28 3 -32 8 -47 56 -22 70 -86 167 -153 232 -44 44 -163 115 -224 136 -10
3 -10 24 3 108 9 58 23 155 31 216 8 60 18 117 21 126 9 23 -27 44 -105 62
-80 19 -168 19 -239 0z m149 -21 c0 -16 -2 -16 -11 -3 -8 11 -9 6 -7 -22 4
-33 1 -38 -17 -38 -18 0 -20 5 -17 37 4 34 3 36 -12 24 -14 -11 -16 -11 -16 3
0 12 10 16 40 16 31 0 40 -4 40 -17z"/>
<path d="M902 2578 c-15 -15 -16 -92 -1 -83 6 4 9 23 7 44 -2 30 0 36 17 36
17 0 19 -6 17 -35 -1 -19 2 -42 8 -50 7 -11 10 -1 10 36 0 38 -4 53 -16 58
-22 8 -28 8 -42 -6z"/>
<path d="M895 2410 c-4 -6 11 -10 37 -10 31 0 39 3 28 10 -20 13 -57 13 -65 0z"/>
<path d="M875 2375 c4 -11 10 -30 12 -42 7 -31 23 -18 23 18 0 20 -4 28 -11
23 -6 -3 -16 0 -21 7 -7 10 -8 9 -3 -6z"/>
<path d="M940 2355 c0 -12 7 -28 15 -35 12 -10 15 -10 15 3 0 8 3 22 6 30 3 9
-3 16 -15 20 -17 4 -21 0 -21 -18z"/>
<path d="M996 2240 c-6 -41 -19 -52 -30 -25 -3 9 -16 19 -28 24 -18 6 -26 4
-37 -12 -14 -19 -14 -19 -29 -1 -13 17 -14 10 -7 -61 3 -44 9 -109 12 -145 5
-72 9 -83 25 -74 6 4 28 6 50 6 l38 -2 0 53 c0 28 5 101 10 161 11 109 8 152
-4 76z m-37 -52 c11 -23 18 -45 15 -49 -7 -12 -34 1 -34 17 0 21 -21 17 -27
-6 -6 -23 -23 -27 -23 -5 0 19 32 85 41 85 4 0 16 -19 28 -42z m31 -75 c0 -6
-4 -14 -9 -17 -5 -3 -9 -31 -10 -61 0 -74 -8 -84 -38 -49 l-24 29 6 -27 c4
-20 1 -28 -9 -28 -10 0 -13 13 -13 50 0 28 2 50 4 50 2 0 15 -11 27 -25 l24
-26 0 34 c0 30 -3 34 -20 29 -14 -3 -26 2 -34 13 -18 25 -18 39 1 31 8 -3 15
-1 15 3 0 5 18 8 40 8 23 -1 40 -7 40 -14z"/>
<path d="M828 2090 c2 -58 9 -114 14 -125 10 -25 0 179 -12 209 -4 11 -5 -26
-2 -84z"/>
<path d="M1020 2023 c0 -31 2 -54 5 -52 8 9 11 109 3 109 -4 0 -8 -25 -8 -57z"/>
<path d="M755 2030 c-18 -57 -179 -180 -237 -180 -9 0 -19 -4 -22 -8 -10 -16
104 7 138 27 46 29 102 92 121 137 8 21 13 39 11 41 -2 3 -7 -5 -11 -17z"/>
<path d="M800 2038 c0 -29 -76 -138 -120 -172 -26 -20 -75 -44 -115 -55 l-70
-21 63 4 c77 5 137 38 186 102 35 45 73 140 62 151 -3 4 -6 0 -6 -9z"/>
<path d="M1123 1994 c36 -71 105 -124 197 -149 l25 -7 -27 21 c-15 12 -43 28
-62 36 -19 8 -61 41 -92 72 -46 47 -53 52 -41 27z"/>
<path d="M1090 1973 c0 -5 5 -14 12 -21 9 -9 9 -12 -2 -12 -16 0 76 -92 111
-111 27 -14 110 -30 104 -18 -3 4 -17 10 -32 14 -51 12 -113 55 -153 106 -22
28 -40 47 -40 42z"/>
<path d="M970 1908 c0 -11 -8 -14 -31 -12 -17 2 -34 6 -39 9 -10 6 -24 -72
-18 -100 5 -29 54 -40 84 -21 22 15 24 21 19 73 -5 52 -15 87 -15 51z m-5 -49
c-3 -4 -13 -5 -22 -2 -11 4 -9 -1 6 -16 18 -18 20 -25 10 -37 -15 -18 -51 -15
-57 5 -3 10 2 11 19 6 l24 -7 -22 21 c-24 23 -21 48 5 54 20 4 44 -12 37 -24z"/>
<path d="M1047 1628 c7 -8 32 -23 55 -34 53 -23 60 -32 42 -58 -22 -31 -17
-39 37 -65 46 -21 52 -22 68 -7 10 9 27 16 38 16 15 0 23 8 28 29 3 16 17 39
31 51 24 24 31 40 16 40 -4 0 -31 -22 -59 -50 -71 -70 -111 -68 -128 4 -10 41
-44 66 -110 82 -26 6 -28 5 -18 -8z"/>
<path d="M522 1563 c20 -21 41 -50 47 -65 8 -22 17 -28 40 -28 15 0 34 -7 41
-16 8 -8 62 -54 122 -101 68 -54 107 -92 103 -100 -2 -8 -8 -62 -11 -121 l-6
-107 44 -31 44 -31 43 31 43 31 -6 80 c-4 44 -9 100 -11 125 l-5 45 74 60 c41
33 79 61 85 63 25 8 9 31 -27 37 -62 10 -70 19 -49 56 25 44 22 56 -23 84 -46
29 -50 30 -50 10 0 -8 4 -15 9 -15 5 0 17 -7 26 -16 12 -13 14 -27 9 -62 -6
-41 -4 -48 20 -67 25 -20 26 -22 9 -38 -102 -95 -113 -110 -113 -151 0 -23 4
-55 8 -71 4 -17 6 -53 4 -81 -3 -43 -8 -54 -29 -65 -23 -12 -27 -11 -48 13
-21 24 -22 33 -18 135 l5 109 -34 37 c-19 20 -38 37 -43 37 -4 0 -27 17 -50
38 -69 61 -118 98 -152 115 -17 9 -38 26 -47 38 -14 20 -69 59 -83 59 -4 0 9
-17 29 -37z"/>
<path d="M470 1562 c0 -6 4 -22 10 -36 8 -21 4 -38 -15 -82 l-25 -56 19 -42
c25 -55 99 -129 160 -161 54 -27 91 -31 122 -15 26 14 24 0 -6 -41 -125 -173
-139 -211 -133 -354 3 -56 8 -108 13 -115 5 -8 10 -21 11 -30 6 -42 36 -165
45 -182 6 -11 8 -24 5 -31 -3 -9 -5 -8 -5 1 -1 7 -5 11 -10 8 -5 -3 -50 57
-100 134 l-91 140 -4 107 c-5 116 -16 180 -41 234 -15 33 -15 32 -10 -46 3
-44 10 -107 16 -140 6 -33 8 -81 5 -107 l-6 -46 153 -234 c85 -128 162 -249
172 -268 28 -55 29 -18 1 67 -72 225 -126 457 -126 548 0 107 26 160 163 334
42 54 46 63 35 81 -17 26 -26 25 -68 -10 -41 -36 -86 -39 -120 -10 -13 11 -29
20 -36 20 -17 0 -123 119 -130 147 -4 13 2 32 15 50 12 16 24 44 27 63 5 29 1
39 -20 59 -14 14 -26 19 -26 13z"/>
<path d="M1381 1554 c-19 -14 -22 -23 -18 -51 4 -19 18 -50 32 -69 l27 -35
-28 -36 c-25 -33 -26 -38 -15 -67 8 -17 24 -58 36 -91 33 -85 44 -47 14 46
-22 68 -23 72 -6 101 23 39 22 49 -10 109 -22 44 -25 56 -16 80 6 16 10 29 9
29 -1 0 -12 -7 -25 -16z"/>
<path d="M1525 10 c-14 -6 0 -9 45 -9 45 0 59 3 45 9 -11 5 -31 9 -45 9 -14 0
-34 -4 -45 -9z"/>
</g>
</svg>
