<svg version="1.1" id="Layer_1" xmlns="http://www.w3.org/2000/svg" xmlns:xlink="http://www.w3.org/1999/xlink" x="0px" y="0px"
	 width="100%" viewBox="0 0 295 305" enable-background="new 0 0 295 305" xml:space="preserve">
<path fill="#AA7954" opacity="1.000000" stroke="none" 
	d="
M296.000000,203.000000 
	C296.000000,237.294891 296.000000,271.589783 296.000000,306.000000 
	C200.312469,306.000000 104.624893,306.000000 8.460907,305.584412 
	C7.431033,302.759735 6.877566,300.350616 6.247686,297.526306 
	C6.216163,295.427063 6.261053,293.743073 6.565493,291.793671 
	C7.206273,289.610596 7.943949,287.685028 7.901677,285.776764 
	C7.776508,280.126129 7.137140,274.484894 7.065062,268.835358 
	C6.655025,236.696564 6.224314,204.557114 6.047867,172.416534 
	C5.871327,140.258911 6.102586,108.099068 5.930730,75.941399 
	C5.815067,54.298576 5.264155,32.658375 5.007293,11.015825 
	C4.934522,4.884379 5.844188,4.077761 11.928546,4.021782 
	C18.724098,3.959260 25.521505,4.067355 32.316471,3.977500 
	C54.458755,3.684694 76.599380,3.239588 98.742325,3.028360 
	C141.877747,2.616878 185.014191,2.308606 228.150467,1.993476 
	C238.813904,1.915575 249.478867,2.030590 260.141876,1.927666 
	C262.430695,1.905574 264.714111,1.323899 267.000000,1.000000 
	C274.687592,1.000000 282.375153,1.000000 290.764099,1.278041 
	C292.197021,3.372288 293.418457,5.149861 293.565338,7.012186 
	C293.954224,11.942683 293.819153,16.912025 294.001251,21.861916 
	C294.261139,28.927452 294.617767,35.989433 294.944763,43.474663 
	C294.959625,45.592186 294.962830,47.287987 294.821289,49.283012 
	C294.774475,51.063705 294.872437,52.545174 294.974609,54.345543 
	C294.982788,55.088825 294.986755,55.513206 294.825470,56.319553 
	C294.441833,59.003696 294.005981,61.309048 294.039551,63.607544 
	C294.306366,81.863228 294.831512,100.116516 294.950409,118.372665 
	C295.118225,144.136063 294.979279,169.901367 295.056091,195.665604 
	C295.063385,198.111298 295.671082,200.555237 296.000000,203.000000 
M129.047226,276.282562 
	C128.990143,275.849030 128.933060,275.415527 128.818069,274.201996 
	C126.104141,263.117004 123.405861,252.028137 120.666359,240.949478 
	C119.886833,237.797043 118.987419,234.674271 118.262367,230.759781 
	C118.221092,228.662781 118.179825,226.565765 118.637352,224.026184 
	C118.998917,223.041809 119.360481,222.057419 119.831291,220.385574 
	C119.886444,219.924881 119.941605,219.464172 120.308029,218.452225 
	C120.501678,217.639175 120.695328,216.826126 121.285210,215.454910 
	C124.875008,210.053314 128.464813,204.651733 132.765625,199.215530 
	C134.121658,199.609467 135.477692,200.003403 136.726608,201.098602 
	C136.582703,202.748047 136.438797,204.397476 136.293915,206.676987 
	C136.869354,207.740509 137.444794,208.804031 138.444397,210.191086 
	C138.888748,210.485596 139.333115,210.780090 140.127487,211.567535 
	C140.760864,212.046112 141.394226,212.524673 142.631744,213.322021 
	C147.323364,217.620911 151.129745,214.478653 155.666534,211.647003 
	C160.388779,208.992401 159.000916,204.906113 158.183899,200.392548 
	C158.159790,200.021118 158.135681,199.649704 158.914322,199.123093 
	C160.277893,199.129898 161.641449,199.136703 163.425583,199.625046 
	C164.954788,201.747971 166.483994,203.870895 168.266785,206.528976 
	C168.797287,207.109940 169.327789,207.690903 170.121719,208.907150 
	C176.046234,219.019684 177.311646,229.884293 174.749664,241.133591 
	C170.910172,257.992188 166.663391,274.758148 162.845352,291.621399 
	C162.415405,293.520294 163.636276,295.792969 164.091614,297.892303 
	C165.728958,296.783691 167.930344,296.039307 168.917389,294.510742 
	C180.191864,277.050720 191.306198,259.486877 202.370712,241.892578 
	C203.215866,240.548645 203.695724,238.779770 203.773163,237.180695 
	C204.205261,228.257675 205.264420,219.262054 204.559067,210.414856 
	C203.800323,200.898148 207.929077,194.237473 214.616943,187.755783 
	C215.438858,186.518646 216.260757,185.281525 217.226425,183.621216 
	C217.226425,183.621216 217.323456,183.184937 217.742706,182.787613 
	C217.533966,181.484116 217.325226,180.180634 216.964066,178.265366 
	C216.862045,177.857651 216.760010,177.449951 216.623444,176.365753 
	C215.759766,174.896713 214.896088,173.427689 213.830566,171.211227 
	C212.921143,169.685608 212.011703,168.159973 211.210037,166.627289 
	C211.210037,166.627289 211.130630,166.698990 211.348907,165.795242 
	C211.454605,164.871933 211.560287,163.948608 211.775803,162.288452 
	C211.557312,160.848480 211.338821,159.408508 211.183563,157.137527 
	C211.549988,153.171494 211.916412,149.205475 212.770157,144.666656 
	C212.593231,140.363281 212.416306,136.059906 212.244736,130.977356 
	C211.226929,129.019135 210.374359,126.949776 209.150269,125.130341 
	C207.553970,122.757614 205.130997,120.821846 203.991013,118.281876 
	C198.966248,107.086189 191.925369,97.572899 181.738922,90.633156 
	C177.762863,87.924385 173.242279,85.998779 169.354004,83.185341 
	C167.817413,82.073502 166.316788,79.396439 166.524277,77.635239 
	C167.887497,66.063774 169.607986,54.529648 171.444962,43.020531 
	C172.569214,35.976784 171.029922,33.235275 164.346008,30.974514 
	C151.883682,26.759266 139.525406,26.979174 127.155945,31.347645 
	C120.815590,33.586838 119.418579,35.794556 120.461372,42.651005 
	C122.187645,54.001343 123.939896,65.347733 125.669243,76.697601 
	C126.194328,80.143761 126.315857,83.327721 122.273804,85.057823 
	C106.367195,91.866241 96.253258,104.149734 89.506958,119.699387 
	C88.583061,121.828896 86.396164,123.379898 84.988655,125.338608 
	C83.535187,127.361275 81.329124,129.489517 81.184715,131.685501 
	C80.748932,138.312515 80.425835,145.105194 81.413216,151.628281 
	C82.704567,160.159531 81.583977,167.601257 76.841560,174.930984 
	C72.845871,181.106598 74.347130,182.856308 78.872742,188.409805 
	C83.431946,194.004517 87.443558,200.524841 89.795258,207.299133 
	C91.978683,213.588684 91.702927,220.743515 92.407593,227.528000 
	C92.628624,229.656189 92.274658,231.857941 92.612015,233.957214 
	C93.224304,237.767365 93.221848,242.096970 95.119530,245.206818 
	C103.179054,258.414490 111.826180,271.264252 120.293739,284.221832 
	C122.844330,288.124878 125.328102,292.096680 128.216568,295.740417 
	C129.245941,297.038910 131.382446,297.459747 133.013580,298.281219 
	C133.455093,296.493652 134.505707,294.591827 134.196838,292.944977 
	C133.721466,290.410461 132.313293,288.050842 131.248337,284.857727 
	C131.087921,283.575989 130.927505,282.294250 130.681992,280.380096 
	C130.149307,279.232330 129.616623,278.084534 129.047226,276.282562 
z"/>
<path fill="#0C0705" opacity="1.000000" stroke="none" 
	d="
M6.305943,292.059082 
	C6.261053,293.743073 6.216163,295.427063 6.157331,297.968140 
	C6.095592,301.216827 6.047796,303.608429 6.000000,306.000000 
	C4.333333,306.000000 2.666667,306.000000 1.000000,306.000000 
	C1.000000,205.833328 0.995641,105.666664 1.041548,5.500019 
	C1.042236,3.999866 1.666667,2.500000 2.918830,1.303422 
	C3.573105,4.896719 3.048603,8.189249 3.082171,11.476079 
	C3.840254,85.704453 4.645531,159.932358 5.476846,234.159958 
	C5.693001,253.460342 6.026397,272.759399 6.305943,292.059082 
z"/>
<path fill="#98745B" opacity="1.000000" stroke="none" 
	d="
M6.565493,291.793671 
	C6.026397,272.759399 5.693001,253.460342 5.476846,234.159958 
	C4.645531,159.932358 3.840254,85.704453 3.082171,11.476079 
	C3.048603,8.189249 3.573105,4.896719 3.418830,1.303422 
	C3.444444,1.000000 3.888889,1.000000 4.317985,1.239717 
	C5.219616,1.732301 6.136595,1.985169 7.053575,2.238038 
	C7.035717,1.825358 7.017858,1.412679 7.000000,1.000000 
	C10.361287,1.000000 13.722575,1.000000 17.295815,1.322126 
	C19.338511,1.429501 21.169256,1.214751 23.000000,1.000000 
	C34.354229,1.000000 45.708454,1.000000 57.736012,1.375696 
	C62.274624,1.796119 66.139908,1.840847 70.470703,1.940463 
	C73.094711,1.998674 75.257988,2.095988 77.410805,1.986962 
	C82.943008,1.706791 88.470581,1.335107 94.000000,1.000000 
	C151.354233,1.000000 208.708450,1.000000 266.531342,1.000000 
	C264.714111,1.323899 262.430695,1.905574 260.141876,1.927666 
	C249.478867,2.030590 238.813904,1.915575 228.150467,1.993476 
	C185.014191,2.308606 141.877747,2.616878 98.742325,3.028360 
	C76.599380,3.239588 54.458755,3.684694 32.316471,3.977500 
	C25.521505,4.067355 18.724098,3.959260 11.928546,4.021782 
	C5.844188,4.077761 4.934522,4.884379 5.007293,11.015825 
	C5.264155,32.658375 5.815067,54.298576 5.930730,75.941399 
	C6.102586,108.099068 5.871327,140.258911 6.047867,172.416534 
	C6.224314,204.557114 6.655025,236.696564 7.065062,268.835358 
	C7.137140,274.484894 7.776508,280.126129 7.901677,285.776764 
	C7.943949,287.685028 7.206273,289.610596 6.565493,291.793671 
z"/>
<path fill="#A17E62" opacity="1.000000" stroke="none" 
	d="
M296.000000,202.531342 
	C295.671082,200.555237 295.063385,198.111298 295.056091,195.665604 
	C294.979279,169.901367 295.118225,144.136063 294.950409,118.372665 
	C294.831512,100.116516 294.306366,81.863228 294.039551,63.607544 
	C294.005981,61.309048 294.441833,59.003696 295.077820,56.336205 
	C295.663605,55.980595 295.831818,55.990299 296.000000,56.000000 
	C296.000000,104.687561 296.000000,153.375122 296.000000,202.531342 
z"/>
<path fill="#A17E62" opacity="1.000000" stroke="none" 
	d="
M294.933075,43.052933 
	C294.617767,35.989433 294.261139,28.927452 294.001251,21.861916 
	C293.819153,16.912025 293.954224,11.942683 293.565338,7.012186 
	C293.418457,5.149861 292.197021,3.372288 291.232727,1.278041 
	C292.066681,1.000000 293.133331,1.000000 294.663818,1.280517 
	C295.418427,1.707358 295.709229,1.853681 296.000000,2.000002 
	C296.000000,2.750000 296.000000,3.500000 295.704651,4.655532 
	C295.606201,5.707377 295.803101,6.353690 296.000000,7.000001 
	C296.000000,16.687561 296.000000,26.375122 295.816254,36.864681 
	C295.399353,39.462097 295.166229,41.257515 294.933075,43.052933 
z"/>
<path fill="#271409" opacity="1.000000" stroke="none" 
	d="
M93.531364,1.000000 
	C88.470581,1.335107 82.943008,1.706791 77.410805,1.986962 
	C75.257988,2.095988 73.094711,1.998674 70.468689,1.719073 
	C70.001175,1.442796 70.000000,1.000000 70.000000,1.000000 
	C77.687576,1.000000 85.375153,1.000000 93.531364,1.000000 
z"/>
<path fill="#85705C" opacity="1.000000" stroke="none" 
	d="
M294.944763,43.474663 
	C295.166229,41.257515 295.399353,39.462097 295.816254,37.333340 
	C296.000000,43.021152 296.000000,49.042305 296.000000,55.531731 
	C295.831818,55.990299 295.663605,55.980595 295.243042,55.954239 
	C294.986755,55.513206 294.982788,55.088825 294.987579,53.924843 
	C294.986237,51.784752 294.976105,50.384266 294.966003,48.983784 
	C294.962830,47.287987 294.959625,45.592186 294.944763,43.474663 
z"/>
<path fill="#98745B" opacity="1.000000" stroke="none" 
	d="
M6.333333,306.000000 
	C6.047796,303.608429 6.095592,301.216827 6.233744,298.383392 
	C6.877566,300.350616 7.431033,302.759735 7.992249,305.584412 
	C7.555555,306.000000 7.111111,306.000000 6.333333,306.000000 
z"/>
<path fill="#271610" opacity="1.000000" stroke="none" 
	d="
M69.539368,1.000000 
	C70.000000,1.000000 70.001175,1.442796 70.003189,1.664185 
	C66.139908,1.840847 62.274624,1.796119 58.204670,1.375696 
	C61.692909,1.000000 65.385818,1.000000 69.539368,1.000000 
z"/>
<path fill="#0C0705" opacity="1.000000" stroke="none" 
	d="
M22.583334,1.000000 
	C21.169256,1.214751 19.338511,1.429501 17.753883,1.322126 
	C19.388889,1.000000 20.777779,1.000000 22.583334,1.000000 
z"/>
<path fill="#0C0705" opacity="1.000000" stroke="none" 
	d="
M6.666667,1.000000 
	C7.017858,1.412679 7.035717,1.825358 7.053575,2.238038 
	C6.136595,1.985169 5.219616,1.732301 4.651318,1.239717 
	C5.444445,1.000000 5.888889,1.000000 6.666667,1.000000 
z"/>
<path fill="#3A2619" opacity="1.000000" stroke="none" 
	d="
M296.000000,6.666668 
	C295.803101,6.353690 295.606201,5.707377 295.704651,5.030532 
	C296.000000,5.444445 296.000000,5.888889 296.000000,6.666668 
z"/>
<path fill="#3A2619" opacity="1.000000" stroke="none" 
	d="
M296.000000,1.500003 
	C295.709229,1.853681 295.418427,1.707358 295.063843,1.280517 
	C295.333344,1.000000 295.666656,1.000000 296.000000,1.500003 
z"/>
<path fill="#9A9088" opacity="1.000000" stroke="none" 
	d="
M212.282837,145.239441 
	C211.916412,149.205475 211.549988,153.171494 210.990936,157.840942 
	C211.087540,160.038010 211.376755,161.531647 211.665985,163.025299 
	C211.560287,163.948608 211.454605,164.871933 211.262268,166.193649 
	C211.175629,166.592056 211.102280,166.634354 211.102280,166.634354 
	C212.011703,168.159973 212.921143,169.685608 213.962708,171.932037 
	C214.949219,174.115982 215.803604,175.579102 216.657990,177.042236 
	C216.760010,177.449951 216.862045,177.857651 217.013062,178.958832 
	C217.026642,180.423813 216.991211,181.195328 216.717010,181.976288 
	C216.160019,182.002228 215.841629,182.013885 215.533600,181.625916 
	C213.857239,177.079773 211.722961,173.044922 210.603897,168.745804 
	C209.380875,164.047272 208.540848,159.105072 208.534012,154.267654 
	C208.523727,146.999084 209.454315,139.732986 209.837891,132.458099 
	C209.982407,129.717499 209.170227,127.687286 205.698044,127.466164 
	C204.511856,127.390617 203.078018,125.752487 202.392197,124.484833 
	C201.215439,122.309753 200.676910,119.800034 199.628387,117.543259 
	C192.069763,101.274788 179.593048,90.461288 162.269806,84.587036 
	C164.242996,69.652397 166.199783,54.841858 168.352722,39.778809 
	C167.752899,38.253181 166.956940,36.980057 165.885254,35.478073 
	C151.963745,29.655655 138.436981,29.696114 124.742157,36.164204 
	C124.145142,37.439171 123.850746,38.656071 123.514328,40.331444 
	C123.885040,43.739571 124.246826,46.697414 124.719627,49.637405 
	C126.464508,60.487740 128.323486,71.320930 129.902893,82.194946 
	C130.074463,83.376274 129.014877,85.583221 128.013885,85.962738 
	C108.987862,93.176369 97.466347,107.213058 90.941483,125.975960 
	C90.560249,127.072227 89.335693,128.700378 88.527687,128.686417 
	C83.983948,128.607925 84.005219,131.681931 83.936226,134.745926 
	C83.853905,138.402008 83.079269,142.271591 83.988388,145.679535 
	C87.181725,157.650208 85.944550,168.643387 78.940704,179.041077 
	C78.176872,180.175018 78.839127,183.336258 79.949738,184.469818 
	C83.545578,188.139984 88.884880,190.417725 88.584312,196.819626 
	C88.565422,197.221786 89.018410,197.947250 89.359276,198.020172 
	C94.746979,199.172714 93.748886,202.905716 93.152855,206.724548 
	C92.853065,208.645294 93.168884,210.701019 93.435692,212.664551 
	C94.564674,220.973221 97.624641,229.082352 95.511963,237.727661 
	C95.159576,239.169678 96.206711,241.235474 97.139282,242.666168 
	C106.594467,257.171631 116.137535,271.620087 125.736374,286.030975 
	C126.540649,287.238464 127.928612,288.057159 129.031403,289.035034 
	C129.017441,289.013550 128.971680,288.990509 128.681076,289.114655 
	C128.608200,289.569672 128.825943,289.900574 129.043686,290.231445 
	C129.353470,289.832642 129.663254,289.433868 130.113525,288.701294 
	C130.602982,287.450684 130.951935,286.533844 131.300873,285.617035 
	C132.313293,288.050842 133.721466,290.410461 134.196838,292.944977 
	C134.505707,294.591827 133.455093,296.493652 133.013580,298.281219 
	C131.382446,297.459747 129.245941,297.038910 128.216568,295.740417 
	C125.328102,292.096680 122.844330,288.124878 120.293739,284.221832 
	C111.826180,271.264252 103.179054,258.414490 95.119530,245.206818 
	C93.221848,242.096970 93.224304,237.767365 92.612015,233.957214 
	C92.274658,231.857941 92.628624,229.656189 92.407593,227.528000 
	C91.702927,220.743515 91.978683,213.588684 89.795258,207.299133 
	C87.443558,200.524841 83.431946,194.004517 78.872742,188.409805 
	C74.347130,182.856308 72.845871,181.106598 76.841560,174.930984 
	C81.583977,167.601257 82.704567,160.159531 81.413216,151.628281 
	C80.425835,145.105194 80.748932,138.312515 81.184715,131.685501 
	C81.329124,129.489517 83.535187,127.361275 84.988655,125.338608 
	C86.396164,123.379898 88.583061,121.828896 89.506958,119.699387 
	C96.253258,104.149734 106.367195,91.866241 122.273804,85.057823 
	C126.315857,83.327721 126.194328,80.143761 125.669243,76.697601 
	C123.939896,65.347733 122.187645,54.001343 120.461372,42.651005 
	C119.418579,35.794556 120.815590,33.586838 127.155945,31.347645 
	C139.525406,26.979174 151.883682,26.759266 164.346008,30.974514 
	C171.029922,33.235275 172.569214,35.976784 171.444962,43.020531 
	C169.607986,54.529648 167.887497,66.063774 166.524277,77.635239 
	C166.316788,79.396439 167.817413,82.073502 169.354004,83.185341 
	C173.242279,85.998779 177.762863,87.924385 181.738922,90.633156 
	C191.925369,97.572899 198.966248,107.086189 203.991013,118.281876 
	C205.130997,120.821846 207.553970,122.757614 209.150269,125.130341 
	C210.374359,126.949776 211.226929,129.019135 212.195892,131.852448 
	C212.192307,136.898163 212.237579,141.068802 212.282837,145.239441 
z"/>
<path fill="#9C928A" opacity="1.000000" stroke="none" 
	d="
M215.523041,182.020737 
	C215.841629,182.013885 216.160019,182.002228 216.807587,182.281494 
	C217.199112,182.779800 217.261292,182.982376 217.323456,183.184937 
	C217.323456,183.184937 217.226425,183.621216 216.884003,184.011200 
	C215.695267,185.604416 214.848953,186.807663 214.002625,188.010910 
	C207.929077,194.237473 203.800323,200.898148 204.559067,210.414856 
	C205.264420,219.262054 204.205261,228.257675 203.773163,237.180695 
	C203.695724,238.779770 203.215866,240.548645 202.370712,241.892578 
	C191.306198,259.486877 180.191864,277.050720 168.917389,294.510742 
	C167.930344,296.039307 165.728958,296.783691 164.091614,297.892303 
	C163.636276,295.792969 162.415405,293.520294 162.845352,291.621399 
	C166.663391,274.758148 170.910172,257.992188 174.749664,241.133591 
	C177.311646,229.884293 176.046234,219.019684 170.016617,208.216202 
	C169.928909,207.031601 169.946304,206.537964 170.263611,206.029755 
	C170.763443,206.005905 170.963394,205.996628 171.355682,206.257294 
	C177.529831,213.691391 180.216034,222.427933 178.954742,231.174408 
	C176.662369,247.071228 172.808243,262.744629 169.538177,278.497162 
	C168.887589,281.631256 167.933243,284.702240 167.118973,287.802338 
	C168.804047,287.703888 169.872208,287.232483 170.392426,286.413177 
	C180.199661,270.967407 189.964493,255.494446 199.645523,239.969406 
	C200.264008,238.977585 200.330750,237.511490 200.306412,236.272873 
	C200.226089,232.185257 199.698441,228.088669 199.869720,224.017715 
	C200.183670,216.556549 200.833313,209.107941 201.436813,201.661697 
	C201.581070,199.881744 201.530212,197.664200 202.536652,196.449692 
	C206.662033,191.471466 211.161346,186.803131 215.523041,182.020737 
z"/>
<path fill="#968F89" opacity="1.000000" stroke="none" 
	d="
M132.054611,199.250137 
	C128.464813,204.651733 124.875008,210.053314 120.869202,215.870972 
	C120.301056,217.192505 120.148903,218.097992 119.996765,219.003479 
	C119.941605,219.464172 119.886444,219.924881 119.539444,220.930130 
	C118.877914,222.472702 118.508224,223.470734 118.138542,224.468765 
	C118.179825,226.565765 118.221092,228.662781 118.181969,231.584991 
	C117.718201,234.281418 117.334839,236.152603 116.780441,237.644806 
	C114.085327,225.644974 116.479729,215.123215 123.718651,205.711014 
	C127.268982,201.094803 130.771271,196.433685 134.511948,191.974640 
	C136.932266,189.089508 137.217377,186.798233 133.390259,184.497299 
	C131.319794,185.870987 129.302765,187.861038 126.895340,188.631973 
	C124.230934,189.485199 120.780228,190.246124 118.422623,189.257355 
	C110.927544,186.113937 105.253616,180.477524 101.274178,173.407730 
	C100.436378,171.919312 100.456253,169.234207 101.236168,167.680359 
	C103.772346,162.627396 106.965897,157.854294 102.547981,151.949753 
	C105.157936,153.972595 107.054459,156.318665 109.039276,158.587524 
	C110.053391,159.746750 111.076981,161.011139 112.360649,161.795151 
	C114.410156,163.046890 116.937874,163.602631 118.809624,165.042542 
	C125.009193,169.811707 130.932877,174.938889 137.117599,179.728271 
	C139.483047,181.560043 140.343109,183.499649 140.080124,186.506424 
	C139.558960,192.465637 139.289413,198.462860 139.277206,204.445114 
	C139.268723,208.598465 146.292847,214.073196 149.160507,212.226379 
	C151.739487,210.565475 153.796417,208.093964 156.194763,206.262573 
	C155.869720,208.313751 155.433533,210.082367 154.997360,211.850967 
	C151.129745,214.478653 147.323364,217.620911 142.173248,212.901764 
	C141.068985,212.012543 140.423218,211.543579 139.777466,211.074600 
	C139.333115,210.780090 138.888748,210.485596 138.207275,209.710449 
	C137.411728,208.168854 136.853317,207.107895 136.294891,206.046921 
	C136.438797,204.397476 136.582703,202.748047 136.796066,200.368423 
	C136.545959,198.398651 136.226410,197.159042 135.564941,194.593094 
	C133.834198,196.889221 132.944412,198.069672 132.054611,199.250137 
M122.507179,186.737732 
	C124.687653,185.646820 127.227356,184.931107 128.909973,183.320175 
	C129.874725,182.396515 130.260345,179.103485 129.516739,178.443695 
	C124.342453,173.852814 118.999367,169.379059 113.254471,165.552200 
	C111.679016,164.502731 107.853851,164.924988 106.291679,166.190720 
	C103.701645,168.289246 103.579308,171.549332 105.784645,174.663208 
	C109.852592,180.406998 115.278519,184.221710 122.507179,186.737732 
z"/>
<path fill="#9A9088" opacity="1.000000" stroke="none" 
	d="
M116.951477,238.023804 
	C117.334839,236.152603 117.718201,234.281418 118.122284,231.974060 
	C118.987419,234.674271 119.886833,237.797043 120.666359,240.949478 
	C123.405861,252.028137 126.104141,263.117004 128.592712,274.410828 
	C127.084991,272.742798 125.802612,270.865967 124.341171,268.692383 
	C124.078812,267.944824 123.995537,267.494019 124.050903,266.737549 
	C123.369919,263.933533 122.550301,261.435211 121.557114,258.679443 
	C121.261139,257.614288 121.138741,256.806580 121.158707,255.677231 
	C120.287758,251.901794 119.274445,248.447983 118.131386,244.682724 
	C117.976509,243.925110 117.951370,243.478973 118.013870,242.853577 
	C117.887520,242.112778 117.673538,241.551224 117.299026,240.639435 
	C117.076157,239.534088 117.013817,238.778946 116.951477,238.023804 
z"/>
<path fill="#8E8E8D" opacity="1.000000" stroke="none" 
	d="
M158.111588,199.278275 
	C158.135681,199.649704 158.159790,200.021118 157.887299,200.670547 
	C157.397400,200.951096 157.204132,200.953659 156.834396,200.796265 
	C156.416641,200.428329 156.170517,200.226212 155.832291,199.632248 
	C155.445084,195.633469 155.540375,191.943161 154.752060,188.452393 
	C153.588013,183.297745 155.417236,179.954056 159.785461,177.972488 
	C159.824310,180.197418 159.906693,182.066544 159.819229,184.250458 
	C155.842789,188.523956 159.780792,190.920166 161.127335,193.881302 
	C159.870255,195.759155 158.990921,197.518723 158.111588,199.278275 
z"/>
<path fill="#988E87" opacity="1.000000" stroke="none" 
	d="
M171.163345,205.987335 
	C170.963394,205.996628 170.763443,206.005905 169.939117,206.016373 
	C168.880875,206.009644 168.447021,206.001740 168.013184,205.993835 
	C166.483994,203.870895 164.954788,201.747971 163.230408,198.944519 
	C163.075531,197.391174 163.115814,196.518387 163.445206,195.829681 
	C166.210648,199.338303 168.686996,202.662827 171.163345,205.987335 
z"/>
<path fill="#9D9085" opacity="1.000000" stroke="none" 
	d="
M157.010849,200.956207 
	C157.204132,200.953659 157.397400,200.951096 157.881729,200.949768 
	C159.000916,204.906113 160.388779,208.992401 155.331940,211.748993 
	C155.433533,210.082367 155.869720,208.313751 156.114822,205.898621 
	C155.941589,204.509598 155.959427,203.767105 156.135529,202.781372 
	C156.532822,202.010849 156.771835,201.483521 157.010849,200.956207 
z"/>
<path fill="#9E8979" opacity="1.000000" stroke="none" 
	d="
M212.526489,144.953049 
	C212.237579,141.068802 212.192307,136.898163 212.193207,132.242035 
	C212.416306,136.059906 212.593231,140.363281 212.526489,144.953049 
z"/>
<path fill="#9D9085" opacity="1.000000" stroke="none" 
	d="
M163.156097,195.645584 
	C163.115814,196.518387 163.075531,197.391174 163.020142,198.703735 
	C161.641449,199.136703 160.277893,199.129898 158.512955,199.200684 
	C158.990921,197.518723 159.870255,195.759155 161.362061,193.991211 
	C162.368408,194.537079 162.762253,195.091339 163.156097,195.645584 
z"/>
<path fill="#968F89" opacity="1.000000" stroke="none" 
	d="
M131.274597,285.237366 
	C130.951935,286.533844 130.602982,287.450684 129.868057,288.582672 
	C129.311951,288.862091 129.141815,288.926300 128.971680,288.990509 
	C128.971680,288.990509 129.017441,289.013550 129.162827,288.640381 
	C128.823441,285.847595 128.338669,283.427948 128.219894,281.008789 
	C129.312958,281.010376 130.040009,281.011444 130.767090,281.012512 
	C130.927505,282.294250 131.087921,283.575989 131.274597,285.237366 
z"/>
<path fill="#968F89" opacity="1.000000" stroke="none" 
	d="
M124.520233,268.989105 
	C125.802612,270.865967 127.084991,272.742798 128.621674,274.800842 
	C128.933060,275.415527 128.990143,275.849030 128.802429,276.744202 
	C128.034378,277.474396 127.511116,277.742950 126.794785,277.707397 
	C125.907898,274.598572 125.214066,271.793823 124.520233,268.989105 
z"/>
<path fill="#9D9085" opacity="1.000000" stroke="none" 
	d="
M132.410126,199.232834 
	C132.944412,198.069672 133.834198,196.889221 135.564941,194.593094 
	C136.226410,197.159042 136.545959,198.398651 136.849625,200.017792 
	C135.477692,200.003403 134.121658,199.609467 132.410126,199.232834 
z"/>
<path fill="#9A9088" opacity="1.000000" stroke="none" 
	d="
M126.987854,278.011475 
	C127.511116,277.742950 128.034378,277.474396 128.820786,277.071289 
	C129.616623,278.084534 130.149307,279.232330 130.724533,280.696289 
	C130.040009,281.011444 129.312958,281.010376 128.027588,280.752625 
	C127.308815,279.667755 127.148331,278.839630 126.987854,278.011475 
z"/>
<path fill="#9E8979" opacity="1.000000" stroke="none" 
	d="
M216.640717,176.703995 
	C215.803604,175.579102 214.949219,174.115982 214.063614,172.305756 
	C214.896088,173.427689 215.759766,174.896713 216.640717,176.703995 
z"/>
<path fill="#9E8979" opacity="1.000000" stroke="none" 
	d="
M211.720886,162.656876 
	C211.376755,161.531647 211.087540,160.038010 210.959320,158.256439 
	C211.338821,159.408508 211.557312,160.848480 211.720886,162.656876 
z"/>
<path fill="#9E8979" opacity="1.000000" stroke="none" 
	d="
M217.533081,182.986267 
	C217.261292,182.982376 217.199112,182.779800 217.046356,182.272034 
	C216.991211,181.195328 217.026642,180.423813 217.089279,179.264725 
	C217.325226,180.180634 217.533966,181.484116 217.533081,182.986267 
z"/>
<path fill="#9E8979" opacity="1.000000" stroke="none" 
	d="
M214.309784,187.883347 
	C214.848953,186.807663 215.695267,185.604416 216.812134,184.222778 
	C216.260757,185.281525 215.438858,186.518646 214.309784,187.883347 
z"/>
<path fill="#9D9085" opacity="1.000000" stroke="none" 
	d="
M136.294403,206.361954 
	C136.853317,207.107895 137.411728,208.168854 137.995209,209.548676 
	C137.444794,208.804031 136.869354,207.740509 136.294403,206.361954 
z"/>
<path fill="#9A9088" opacity="1.000000" stroke="none" 
	d="
M120.152390,218.727844 
	C120.148903,218.097992 120.301056,217.192505 120.671089,216.150055 
	C120.695328,216.826126 120.501678,217.639175 120.152390,218.727844 
z"/>
<path fill="#9A9088" opacity="1.000000" stroke="none" 
	d="
M118.387939,224.247467 
	C118.508224,223.470734 118.877914,222.472702 119.484825,221.273865 
	C119.360481,222.057419 118.998917,223.041809 118.387939,224.247467 
z"/>
<path fill="#A17E62" opacity="1.000000" stroke="none" 
	d="
M294.821289,49.283012 
	C294.976105,50.384266 294.986237,51.784752 294.983368,53.605938 
	C294.872437,52.545174 294.774475,51.063705 294.821289,49.283012 
z"/>
<path fill="#9D9085" opacity="1.000000" stroke="none" 
	d="
M139.952484,211.321075 
	C140.423218,211.543579 141.068985,212.012543 141.871185,212.742371 
	C141.394226,212.524673 140.760864,212.046112 139.952484,211.321075 
z"/>
<path fill="#9D9085" opacity="1.000000" stroke="none" 
	d="
M168.139984,206.261414 
	C168.447021,206.001740 168.880875,206.009644 169.639206,206.030930 
	C169.946304,206.537964 169.928909,207.031601 169.884888,207.898560 
	C169.327789,207.690903 168.797287,207.109940 168.139984,206.261414 
z"/>
<path fill="#161616" opacity="1.000000" stroke="none" 
	d="
M211.156158,166.630829 
	C211.102280,166.634354 211.175629,166.592056 211.153137,166.645523 
	C211.130630,166.698990 211.210037,166.627289 211.156158,166.630829 
z"/>
<path fill="#161616" opacity="1.000000" stroke="none" 
	d="
M126.794785,277.707397 
	C127.148331,278.839630 127.308815,279.667755 127.661598,280.752106 
	C128.338669,283.427948 128.823441,285.847595 129.176788,288.661865 
	C127.928612,288.057159 126.540649,287.238464 125.736374,286.030975 
	C116.137535,271.620087 106.594467,257.171631 97.139282,242.666168 
	C96.206711,241.235474 95.159576,239.169678 95.511963,237.727661 
	C97.624641,229.082352 94.564674,220.973221 93.435692,212.664551 
	C93.168884,210.701019 92.853065,208.645294 93.152855,206.724548 
	C93.748886,202.905716 94.746979,199.172714 89.359276,198.020172 
	C89.018410,197.947250 88.565422,197.221786 88.584312,196.819626 
	C88.884880,190.417725 83.545578,188.139984 79.949738,184.469818 
	C78.839127,183.336258 78.176872,180.175018 78.940704,179.041077 
	C85.944550,168.643387 87.181725,157.650208 83.988388,145.679535 
	C83.079269,142.271591 83.853905,138.402008 83.936226,134.745926 
	C84.005219,131.681931 83.983948,128.607925 88.527687,128.686417 
	C89.335693,128.700378 90.560249,127.072227 90.941483,125.975960 
	C97.466347,107.213058 108.987862,93.176369 128.013885,85.962738 
	C129.014877,85.583221 130.074463,83.376274 129.902893,82.194946 
	C128.323486,71.320930 126.464508,60.487740 124.719627,49.637405 
	C124.246826,46.697414 123.885040,43.739571 123.757500,40.613026 
	C126.274796,45.551880 129.009491,50.515617 130.614212,55.821125 
	C132.711334,62.754570 133.914536,69.958405 135.544556,77.499275 
	C136.653244,89.249542 137.719711,100.546440 138.786163,111.843338 
	C139.583374,111.750595 140.380569,111.657852 141.177780,111.565109 
	C139.735550,100.066368 138.293320,88.567635 136.835602,76.660248 
	C134.873917,62.289326 131.087280,48.866894 125.044785,36.106136 
	C138.436981,29.696114 151.963745,29.655655 165.771484,35.840424 
	C164.271118,40.625725 162.608780,44.819813 160.946457,49.013901 
	C161.371750,49.167515 161.797058,49.321129 162.222351,49.474743 
	C164.200424,46.326931 166.178497,43.179123 168.156570,40.031311 
	C166.199783,54.841858 164.242996,69.652397 162.269806,84.587036 
	C179.593048,90.461288 192.069763,101.274788 199.628387,117.543259 
	C200.676910,119.800034 201.215439,122.309753 202.392197,124.484833 
	C203.078018,125.752487 204.511856,127.390617 205.698044,127.466164 
	C209.170227,127.687286 209.982407,129.717499 209.837891,132.458099 
	C209.454315,139.732986 208.523727,146.999084 208.534012,154.267654 
	C208.540848,159.105072 209.380875,164.047272 210.603897,168.745804 
	C211.722961,173.044922 213.857239,177.079773 215.533600,181.625916 
	C211.161346,186.803131 206.662033,191.471466 202.536652,196.449692 
	C201.530212,197.664200 201.581070,199.881744 201.436813,201.661697 
	C200.833313,209.107941 200.183670,216.556549 199.869720,224.017715 
	C199.698441,228.088669 200.226089,232.185257 200.306412,236.272873 
	C200.330750,237.511490 200.264008,238.977585 199.645523,239.969406 
	C189.964493,255.494446 180.199661,270.967407 170.392426,286.413177 
	C169.872208,287.232483 168.804047,287.703888 167.118973,287.802338 
	C167.933243,284.702240 168.887589,281.631256 169.538177,278.497162 
	C172.808243,262.744629 176.662369,247.071228 178.954742,231.174408 
	C180.216034,222.427933 177.529831,213.691391 171.355682,206.257294 
	C168.686996,202.662827 166.210648,199.338303 163.445206,195.829681 
	C162.762253,195.091339 162.368408,194.537079 161.739838,193.872925 
	C159.780792,190.920166 155.842789,188.523956 160.171341,184.298859 
	C162.425568,185.008499 164.196854,185.921783 165.883133,186.971649 
	C172.197952,190.903214 174.663132,190.863388 180.818924,186.376709 
	C182.928436,184.839188 184.871017,183.072647 187.517761,180.893860 
	C189.676620,184.445343 191.669327,187.723495 193.662048,191.001648 
	C193.617691,187.172379 192.318176,183.725311 191.550110,180.163666 
	C191.149200,178.304642 190.937119,175.655121 191.937775,174.386353 
	C194.766006,170.800339 195.107315,167.811951 191.802841,164.470612 
	C190.903030,163.560760 190.478790,162.180603 189.833466,160.652649 
	C189.830643,157.570877 189.830643,154.852753 189.830643,150.457169 
	C187.475952,154.549744 185.640579,157.739716 183.428299,160.962585 
	C180.079056,161.882858 177.106705,162.770264 173.928925,163.387939 
	C171.978714,162.195007 170.076004,161.472931 168.548325,160.273285 
	C167.629776,159.551941 166.696152,158.013748 166.822388,156.970032 
	C167.094421,154.721039 169.463409,152.274292 165.603928,150.926392 
	C163.378098,150.149033 161.118011,149.469711 158.873352,148.746262 
	C158.479279,149.109329 158.085190,149.472397 157.691116,149.835464 
	C167.112976,152.380707 163.890366,158.041534 161.100357,163.540833 
	C164.528519,164.535309 167.189682,165.307281 170.023056,166.270020 
	C170.483749,166.642563 170.772247,166.824341 170.961349,167.333023 
	C168.099274,170.308029 165.336578,172.956131 162.286011,175.665817 
	C161.275070,176.357147 160.552032,176.986923 159.829010,177.616699 
	C155.417236,179.954056 153.588013,183.297745 154.752060,188.452393 
	C155.540375,191.943161 155.445084,195.633469 155.760422,200.004044 
	C155.842987,201.523895 155.910126,202.274246 155.977264,203.024597 
	C155.959427,203.767105 155.941589,204.509598 156.003693,205.616058 
	C153.796417,208.093964 151.739487,210.565475 149.160507,212.226379 
	C146.292847,214.073196 139.268723,208.598465 139.277206,204.445114 
	C139.289413,198.462860 139.558960,192.465637 140.080124,186.506424 
	C140.343109,183.499649 139.483047,181.560043 137.117599,179.728271 
	C130.932877,174.938889 125.009193,169.811707 118.809624,165.042542 
	C116.937874,163.602631 114.410156,163.046890 112.360649,161.795151 
	C111.076981,161.011139 110.053391,159.746750 109.039276,158.587524 
	C107.054459,156.318665 105.157936,153.972595 102.547981,151.949753 
	C106.965897,157.854294 103.772346,162.627396 101.236168,167.680359 
	C100.456253,169.234207 100.436378,171.919312 101.274178,173.407730 
	C105.253616,180.477524 110.927544,186.113937 118.422623,189.257355 
	C120.780228,190.246124 124.230934,189.485199 126.895340,188.631973 
	C129.302765,187.861038 131.319794,185.870987 133.390259,184.497299 
	C137.217377,186.798233 136.932266,189.089508 134.511948,191.974640 
	C130.771271,196.433685 127.268982,201.094803 123.718651,205.711014 
	C116.479729,215.123215 114.085327,225.644974 116.780441,237.644806 
	C117.013817,238.778946 117.076157,239.534088 117.250801,240.908188 
	C117.550812,242.029037 117.738525,242.530930 117.926239,243.032822 
	C117.951370,243.478973 117.976509,243.925110 118.117813,245.072067 
	C119.161438,249.181534 120.088890,252.590210 121.016342,255.998871 
	C121.138741,256.806580 121.261139,257.614288 121.555862,259.081482 
	C122.456207,262.175018 123.184227,264.609100 123.912254,267.043182 
	C123.995537,267.494019 124.078812,267.944824 124.341164,268.692383 
	C125.214066,271.793823 125.907898,274.598572 126.794785,277.707397 
M158.525009,63.578186 
	C159.175064,61.652519 159.825119,59.726852 160.475159,57.801189 
	C159.971054,57.695263 159.466949,57.589336 158.962845,57.483414 
	C158.646866,59.659767 158.330902,61.836121 157.973724,64.036942 
	C157.973724,64.036942 157.987442,63.984398 158.525009,63.578186 
M153.971191,121.037971 
	C154.276825,115.971336 154.582474,110.904701 154.923401,104.923386 
	C155.498779,94.652107 156.074142,84.380821 156.649521,74.109543 
	C156.217438,74.076286 155.785355,74.043030 155.353271,74.009773 
	C154.540512,83.330734 153.727753,92.651695 152.619232,102.741882 
	C152.428711,109.471161 152.238190,116.200432 152.023361,123.795258 
	C152.137848,125.954117 152.252350,128.112976 152.366837,130.271835 
	C152.888550,130.246445 153.410278,130.221069 153.931992,130.195679 
	C153.931992,127.449738 153.931992,124.703804 153.971191,121.037971 
M143.802673,110.728073 
	C144.049667,109.866676 144.296661,109.005280 144.600082,107.947136 
	C146.181183,109.086884 147.447174,109.999474 149.316513,111.347000 
	C149.316513,108.501160 149.316513,106.364449 149.316513,105.259644 
	C146.912186,105.011574 144.983398,104.812569 142.489410,104.555252 
	C142.735519,106.577354 142.998154,108.735207 143.802673,110.728073 
M96.300026,208.617950 
	C97.168427,211.186584 98.036835,213.755203 99.123169,216.968445 
	C101.525276,210.583481 99.878769,206.136841 95.220047,205.175552 
	C95.521614,206.144318 95.800385,207.039871 96.300026,208.617950 
M148.325485,93.523468 
	C150.693192,89.922363 147.672272,88.294502 145.537231,85.404442 
	C144.346313,88.270447 143.450928,90.425247 142.881210,91.796318 
	C144.889938,92.445847 146.302765,92.902679 148.325485,93.523468 
M114.425064,122.818047 
	C113.252052,123.500656 112.079041,124.183258 110.174408,125.291611 
	C116.162430,125.693733 120.695480,122.879333 122.417450,117.950569 
	C119.701424,119.634384 117.374817,121.076767 114.425064,122.818047 
M147.186752,125.957809 
	C146.471451,124.772049 145.756134,123.586296 145.040833,122.400536 
	C144.566711,122.788101 144.092590,123.175667 143.618469,123.563232 
	C144.572037,124.362015 145.525620,125.160797 147.186752,125.957809 
z"/>
<path fill="#333332" opacity="1.000000" stroke="none" 
	d="
M124.742157,36.164204 
	C131.087280,48.866894 134.873917,62.289326 136.498688,76.654999 
	C135.952286,77.054237 135.727310,77.050072 135.502319,77.045906 
	C133.914536,69.958405 132.711334,62.754570 130.614212,55.821125 
	C129.009491,50.515617 126.274796,45.551880 123.799530,40.154549 
	C123.850746,38.656071 124.145142,37.439171 124.742157,36.164204 
z"/>
<path fill="#2C2C2D" opacity="1.000000" stroke="none" 
	d="
M168.352722,39.778809 
	C166.178497,43.179123 164.200424,46.326931 162.222351,49.474743 
	C161.797058,49.321129 161.371750,49.167515 160.946457,49.013901 
	C162.608780,44.819813 164.271118,40.625725 166.047211,36.069283 
	C166.956940,36.980057 167.752899,38.253181 168.352722,39.778809 
z"/>
<path fill="#161616" opacity="1.000000" stroke="none" 
	d="
M128.681076,289.114655 
	C129.141815,288.926300 129.311951,288.862091 129.727554,288.916443 
	C129.663254,289.433868 129.353470,289.832642 129.043686,290.231445 
	C128.825943,289.900574 128.608200,289.569672 128.681076,289.114655 
z"/>
<path fill="#A77A58" opacity="1.000000" stroke="none" 
	d="
M122.136307,186.712601 
	C115.278519,184.221710 109.852592,180.406998 105.784645,174.663208 
	C103.579308,171.549332 103.701645,168.289246 106.291679,166.190720 
	C107.853851,164.924988 111.679016,164.502731 113.254471,165.552200 
	C118.999367,169.379059 124.342453,173.852814 129.516739,178.443695 
	C130.260345,179.103485 129.874725,182.396515 128.909973,183.320175 
	C127.227356,184.931107 124.687653,185.646820 122.136307,186.712601 
z"/>
<path fill="#968F89" opacity="1.000000" stroke="none" 
	d="
M121.158707,255.677231 
	C120.088890,252.590210 119.161438,249.181534 118.247559,245.383530 
	C119.274445,248.447983 120.287758,251.901794 121.158707,255.677231 
z"/>
<path fill="#968F89" opacity="1.000000" stroke="none" 
	d="
M124.050888,266.737549 
	C123.184227,264.609100 122.456207,262.175018 121.729439,259.338898 
	C122.550301,261.435211 123.369919,263.933533 124.050888,266.737549 
z"/>
<path fill="#968F89" opacity="1.000000" stroke="none" 
	d="
M118.013870,242.853577 
	C117.738525,242.530930 117.550812,242.029037 117.411331,241.258392 
	C117.673538,241.551224 117.887520,242.112778 118.013870,242.853577 
z"/>
<path fill="#9B928C" opacity="1.000000" stroke="none" 
	d="
M174.134369,163.657654 
	C177.106705,162.770264 180.079056,161.882858 183.860657,160.963287 
	C186.392059,160.959503 188.114166,160.987900 189.836288,161.016281 
	C190.478790,162.180603 190.903030,163.560760 191.802841,164.470612 
	C195.107315,167.811951 194.766006,170.800339 191.937775,174.386353 
	C190.937119,175.655121 191.149200,178.304642 191.550110,180.163666 
	C192.318176,183.725311 193.617691,187.172379 193.662048,191.001648 
	C191.669327,187.723495 189.676620,184.445343 187.517761,180.893860 
	C184.871017,183.072647 182.928436,184.839188 180.818924,186.376709 
	C174.663132,190.863388 172.197952,190.903214 165.883133,186.971649 
	C164.196854,185.921783 162.425568,185.008499 160.341187,183.984100 
	C159.906693,182.066544 159.824310,180.197418 159.785461,177.972488 
	C160.552032,176.986923 161.275070,176.357147 162.565079,175.868332 
	C163.318619,176.143631 163.505173,176.277969 163.578735,176.681610 
	C163.336670,177.319778 163.207596,177.688644 162.852570,178.222168 
	C162.784042,179.568314 162.941452,180.749786 163.394470,182.110092 
	C173.764450,188.584442 188.297287,181.648132 189.778107,169.837463 
	C190.316132,165.546356 187.705582,162.810150 183.683228,164.116150 
	C179.998749,165.312454 176.609558,167.418121 172.879486,168.918335 
	C172.132736,168.144440 171.596725,167.575272 171.060730,167.006119 
	C170.772247,166.824341 170.483749,166.642563 170.380936,166.204575 
	C171.755859,165.184784 172.945114,164.421219 174.134369,163.657654 
z"/>
<path fill="#968F89" opacity="1.000000" stroke="none" 
	d="
M156.135529,202.781372 
	C155.910126,202.274246 155.842987,201.523895 155.847717,200.401749 
	C156.170517,200.226212 156.416641,200.428329 156.834396,200.796265 
	C156.771835,201.483521 156.532822,202.010849 156.135529,202.781372 
z"/>
<path fill="#909090" opacity="1.000000" stroke="none" 
	d="
M173.928925,163.387924 
	C172.945114,164.421219 171.755859,165.184784 170.208725,166.013794 
	C167.189682,165.307281 164.528519,164.535309 161.100357,163.540833 
	C163.890366,158.041534 167.112976,152.380707 157.691116,149.835464 
	C158.085190,149.472397 158.479279,149.109329 158.873352,148.746262 
	C161.118011,149.469711 163.378098,150.149033 165.603928,150.926392 
	C169.463409,152.274292 167.094421,154.721039 166.822388,156.970032 
	C166.696152,158.013748 167.629776,159.551941 168.548325,160.273285 
	C170.076004,161.472931 171.978714,162.195007 173.928925,163.387924 
z"/>
<path fill="#404040" opacity="1.000000" stroke="none" 
	d="
M135.544556,77.499275 
	C135.727310,77.050072 135.952286,77.054237 136.514175,77.063652 
	C138.293320,88.567635 139.735550,100.066368 141.177780,111.565109 
	C140.380569,111.657852 139.583374,111.750595 138.786163,111.843338 
	C137.719711,100.546440 136.653244,89.249542 135.544556,77.499275 
z"/>
<path fill="#393938" opacity="1.000000" stroke="none" 
	d="
M152.914978,101.972656 
	C153.727753,92.651695 154.540512,83.330734 155.353271,74.009773 
	C155.785355,74.043030 156.217438,74.076286 156.649521,74.109543 
	C156.074142,84.380821 155.498779,94.652107 154.758789,105.116013 
	C154.034439,104.196648 153.474716,103.084648 152.914978,101.972656 
z"/>
<path fill="#696969" opacity="1.000000" stroke="none" 
	d="
M143.531738,110.810570 
	C142.998154,108.735207 142.735519,106.577354 142.489410,104.555252 
	C144.983398,104.812569 146.912186,105.011574 149.316513,105.259644 
	C149.316513,106.364449 149.316513,108.501160 149.316513,111.347000 
	C147.447174,109.999474 146.181183,109.086884 144.600082,107.947136 
	C144.296661,109.005280 144.049667,109.866676 143.531738,110.810570 
z"/>
<path fill="#2F2F2F" opacity="1.000000" stroke="none" 
	d="
M152.767105,102.357269 
	C153.474716,103.084648 154.034439,104.196648 154.741150,105.573349 
	C154.582474,110.904701 154.276825,115.971336 153.720398,121.627945 
	C152.995636,122.455185 152.521637,122.692451 152.047668,122.929710 
	C152.238190,116.200432 152.428711,109.471161 152.767105,102.357269 
z"/>
<path fill="#8E8E8E" opacity="1.000000" stroke="none" 
	d="
M96.189590,208.276672 
	C95.800385,207.039871 95.521614,206.144318 95.220047,205.175552 
	C99.878769,206.136841 101.525276,210.583481 99.123169,216.968445 
	C98.036835,213.755203 97.168427,211.186584 96.189590,208.276672 
z"/>
<path fill="#898989" opacity="1.000000" stroke="none" 
	d="
M189.833466,160.652649 
	C188.114166,160.987900 186.392059,160.959503 184.237579,160.930420 
	C185.640579,157.739716 187.475952,154.549744 189.830643,150.457169 
	C189.830643,154.852753 189.830643,157.570877 189.833466,160.652649 
z"/>
<path fill="#686868" opacity="1.000000" stroke="none" 
	d="
M148.020538,93.441490 
	C146.302765,92.902679 144.889938,92.445847 142.881210,91.796318 
	C143.450928,90.425247 144.346313,88.270447 145.537231,85.404442 
	C147.672272,88.294502 150.693192,89.922363 148.020538,93.441490 
z"/>
<path fill="#767676" opacity="1.000000" stroke="none" 
	d="
M114.736633,122.668602 
	C117.374817,121.076767 119.701424,119.634384 122.417450,117.950569 
	C120.695480,122.879333 116.162430,125.693733 110.174408,125.291611 
	C112.079041,124.183258 113.252052,123.500656 114.736633,122.668602 
z"/>
<path fill="#978A80" opacity="1.000000" stroke="none" 
	d="
M170.961349,167.333023 
	C171.596725,167.575272 172.132736,168.144440 172.757965,169.229462 
	C169.795380,171.967667 166.743561,174.189987 163.691742,176.412308 
	C163.505173,176.277969 163.318619,176.143631 162.852966,175.806763 
	C165.336578,172.956131 168.099274,170.308029 170.961349,167.333023 
z"/>
<path fill="#222222" opacity="1.000000" stroke="none" 
	d="
M152.035507,123.362488 
	C152.521637,122.692451 152.995636,122.455185 153.700806,122.087891 
	C153.931992,124.703804 153.931992,127.449738 153.931992,130.195679 
	C153.410278,130.221069 152.888550,130.246445 152.366837,130.271835 
	C152.252350,128.112976 152.137848,125.954117 152.035507,123.362488 
z"/>
<path fill="#2C2C2D" opacity="1.000000" stroke="none" 
	d="
M158.014923,64.012474 
	C158.330902,61.836121 158.646866,59.659767 158.962845,57.483414 
	C159.466949,57.589336 159.971054,57.695263 160.475159,57.801189 
	C159.825119,59.726852 159.175064,61.652519 158.263000,63.788429 
	C158.000992,63.998672 158.014923,64.012474 158.014923,64.012474 
z"/>
<path fill="#7C7C7C" opacity="1.000000" stroke="none" 
	d="
M146.832977,125.958694 
	C145.525620,125.160797 144.572037,124.362015 143.618469,123.563232 
	C144.092590,123.175667 144.566711,122.788101 145.040833,122.400536 
	C145.756134,123.586296 146.471451,124.772049 146.832977,125.958694 
z"/>
<path fill="#2C2C2D" opacity="1.000000" stroke="none" 
	d="
M157.994217,63.991535 
	C157.987442,63.984398 157.973724,64.036942 157.994324,64.024704 
	C158.014923,64.012474 158.000992,63.998672 157.994217,63.991535 
z"/>
<path fill="#A77B59" opacity="1.000000" stroke="none" 
	d="
M163.578735,176.681610 
	C166.743561,174.189987 169.795380,171.967667 172.968719,169.434204 
	C176.609558,167.418121 179.998749,165.312454 183.683228,164.116150 
	C187.705582,162.810150 190.316132,165.546356 189.778107,169.837463 
	C188.297287,181.648132 173.764450,188.584442 163.368256,181.723724 
	C163.057129,180.124863 163.067825,179.091187 163.078522,178.057495 
	C163.207596,177.688644 163.336670,177.319778 163.578735,176.681610 
z"/>
<path fill="#978A80" opacity="1.000000" stroke="none" 
	d="
M162.852570,178.222168 
	C163.067825,179.091187 163.057129,180.124863 163.072647,181.544922 
	C162.941452,180.749786 162.784042,179.568314 162.852570,178.222168 
z"/>
</svg>