<?xml version="1.0" standalone="no"?>
<!DOCTYPE svg PUBLIC "-//W3C//DTD SVG 20010904//EN"
 "http://www.w3.org/TR/2001/REC-SVG-20010904/DTD/svg10.dtd">
<svg version="1.0" xmlns="http://www.w3.org/2000/svg"
 width="800.000000pt" height="1280.000000pt" viewBox="0 0 800.000000 1280.000000"
 preserveAspectRatio="xMidYMid meet">

<g transform="translate(0.000000,1280.000000) scale(0.100000,-0.100000)"
fill="#000000" stroke="none">
<path d="M3790 12139 c-280 -19 -586 -106 -777 -222 -50 -30 -53 -33 -53 -73
0 -22 11 -106 25 -185 14 -79 30 -182 35 -229 6 -47 24 -166 40 -265 16 -99
50 -313 75 -475 25 -162 55 -349 65 -415 75 -454 82 -508 68 -516 -7 -5 -56
-23 -108 -40 -208 -68 -489 -223 -696 -385 -92 -71 -270 -243 -336 -324 -123
-150 -261 -360 -345 -525 -57 -112 -157 -364 -198 -497 l-26 -88 -97 0 c-122
0 -138 -5 -151 -42 -6 -16 -18 -122 -28 -236 -14 -176 -15 -231 -5 -372 12
-172 40 -357 70 -470 13 -50 17 -106 17 -250 0 -170 -2 -190 -24 -250 -25 -68
-260 -535 -294 -583 -15 -21 -19 -44 -18 -94 1 -79 15 -98 102 -145 40 -21
104 -77 214 -189 134 -136 156 -162 151 -181 -17 -58 -18 -144 -2 -176 20 -40
40 -50 124 -65 l67 -12 11 -235 c18 -362 56 -729 100 -964 31 -167 31 -271 0
-378 -13 -46 -27 -106 -31 -134 -6 -51 -6 -52 67 -161 40 -61 107 -163 148
-228 129 -202 221 -343 433 -667 64 -98 166 -253 226 -345 524 -801 667 -1013
683 -1013 14 0 8 28 -72 315 -38 138 -112 408 -165 600 -53 193 -109 397 -125
455 -126 454 -217 873 -261 1199 -30 218 -30 468 0 608 27 132 71 263 117 355
31 62 182 298 249 389 29 39 284 367 305 393 110 131 220 274 220 287 0 20
-122 188 -140 194 -24 8 -22 9 -250 -152 -112 -78 -207 -122 -231 -107 -7 4
-46 10 -88 14 -91 8 -145 32 -174 76 -25 38 -65 64 -99 64 -58 0 -103 23 -171
89 -128 123 -381 442 -436 549 -27 53 -26 71 3 113 134 186 161 243 187 386
27 151 27 149 -39 229 -70 84 -106 134 -100 140 6 5 78 -49 188 -142 80 -67
87 -76 109 -140 63 -181 72 -191 180 -180 38 3 80 2 93 -3 13 -5 52 -35 88
-66 36 -31 164 -136 285 -233 121 -97 222 -179 225 -182 3 -3 37 -30 75 -60
39 -30 72 -57 75 -60 3 -4 81 -67 174 -140 l168 -135 -5 -55 c-3 -30 -15 -140
-28 -245 -18 -156 -22 -240 -22 -471 0 -154 4 -288 9 -297 21 -36 342 -267
373 -267 18 0 312 215 343 252 16 18 17 43 13 281 -6 268 -23 484 -55 687 -18
108 -18 116 -2 134 15 16 71 63 242 201 226 183 500 418 500 430 0 7 -8 19
-18 27 -32 27 -206 95 -302 118 -108 26 -130 35 -130 55 0 7 36 86 80 174 44
88 80 166 80 174 0 25 -35 61 -120 122 -63 46 -194 145 -229 172 -2 2 -2 6 2
9 10 11 172 -52 352 -136 33 -16 72 -33 88 -39 33 -13 35 -37 6 -94 -30 -58
-69 -175 -69 -207 0 -29 11 -35 171 -100 43 -17 107 -49 145 -72 40 -24 85
-43 109 -46 39 -4 46 -1 97 45 l55 50 89 7 c49 4 99 14 111 22 16 10 32 44 54
117 18 56 37 110 43 120 14 24 237 209 243 203 3 -3 -22 -42 -55 -88 -80 -110
-83 -118 -67 -208 29 -161 81 -278 176 -391 38 -46 69 -91 69 -100 0 -15 -62
-113 -168 -264 -41 -59 -52 -101 -32 -121 17 -17 119 -272 145 -359 38 -131
88 -355 81 -362 -10 -11 -21 8 -46 77 -13 36 -43 106 -66 157 -24 51 -44 102
-44 113 0 33 -26 75 -92 148 -33 37 -67 77 -76 90 -8 12 -21 22 -29 22 -8 0
-65 -51 -127 -113 -89 -90 -131 -124 -216 -174 -126 -74 -197 -97 -290 -91
-79 4 -163 44 -347 164 -142 93 -150 96 -173 89 -24 -8 -133 -187 -128 -213 2
-11 96 -132 209 -269 114 -136 235 -284 270 -328 268 -336 408 -612 409 -806
0 -31 7 -78 15 -105 57 -189 37 -517 -61 -1014 -35 -177 -70 -325 -289 -1205
-210 -846 -212 -855 -197 -855 14 0 44 46 437 667 280 441 628 999 728 1163
55 91 130 212 167 270 138 214 200 319 200 335 0 9 -11 35 -24 58 -63 107 -73
293 -31 550 59 359 87 706 78 965 l-6 200 57 53 c71 66 213 229 288 329 31 41
107 124 167 185 71 70 111 117 111 131 0 11 -19 47 -42 80 -43 60 -122 243
-159 369 -11 39 -43 112 -71 164 l-50 95 0 236 c0 233 1 238 25 286 62 121 73
839 16 1024 -17 55 -31 60 -150 60 l-107 0 -10 28 c-6 15 -29 81 -51 147 -43
131 -102 277 -149 370 -72 144 -200 341 -267 415 -23 25 -77 89 -120 143 -82
104 -160 174 -365 328 -160 121 -160 121 -320 202 -181 92 -311 149 -390 171
-94 26 -95 27 -92 77 6 75 81 569 102 664 10 50 24 144 30 210 13 150 79 635
127 944 l37 234 -28 22 c-46 37 -184 101 -301 139 -148 49 -349 86 -525 96
-165 10 -162 10 -330 -1z m306 -126 c9 -34 -1 -39 -27 -14 -25 23 -71 28 -87
9 -13 -17 -6 -262 8 -266 27 -9 4 -22 -40 -22 -47 0 -63 11 -40 25 15 9 13
248 -2 263 -21 21 -66 14 -93 -15 l-25 -28 0 31 c0 17 2 33 4 35 2 2 70 5 150
5 l146 2 6 -25z m-93 -739 c3 -4 0 -13 -8 -21 -12 -11 -15 -43 -15 -138 0 -72
4 -126 10 -130 23 -14 7 -25 -36 -25 -43 0 -45 1 -37 23 14 38 10 252 -5 270
-11 13 -10 16 5 20 28 7 79 8 86 1z m-133 -784 c0 -5 -6 -10 -14 -10 -7 0 -19
-7 -26 -15 -7 -8 -16 -15 -21 -15 -10 0 -12 34 -2 43 10 11 63 8 63 -3z m235
-11 c10 -30 -1 -34 -31 -10 -32 25 -57 27 -78 6 -20 -20 -20 -232 0 -270 13
-25 13 -25 -36 -25 -49 0 -49 0 -40 26 13 34 13 261 0 269 -28 17 -1 25 84 25
87 0 95 -2 101 -21z m-517 -729 l0 -35 -8 40 c-4 22 -10 69 -13 105 l-6 65 14
-70 c8 -38 14 -86 13 -105z m435 -106 c20 -49 51 -116 67 -148 16 -33 27 -63
24 -68 -6 -10 -55 -10 -69 0 -5 4 -11 22 -12 40 -1 43 -19 62 -57 62 l-31 0
25 13 c26 14 29 32 11 80 -15 38 -39 34 -57 -10 -12 -27 -13 -42 -5 -60 6 -13
7 -23 1 -23 -21 0 -50 -45 -50 -77 0 -30 -3 -33 -30 -33 -33 0 -37 6 -16 29
12 14 47 88 115 244 12 29 26 47 33 45 7 -3 30 -45 51 -94z m-416 -81 c-3 -10
-5 -4 -5 12 0 17 2 24 5 18 2 -7 2 -21 0 -30z m10 -90 c-2 -16 -4 -5 -4 22 0
28 2 40 4 28 2 -13 2 -35 0 -50z m39 -323 c4 -80 4 -142 0 -139 -4 4 -11 71
-16 150 -6 79 -12 171 -15 204 l-5 60 15 -65 c8 -36 17 -130 21 -210z m29
-364 c9 -113 12 -193 7 -198 -10 -10 -18 82 -26 297 -7 163 0 128 19 -99z
m194 174 c10 -5 36 -33 59 -62 68 -89 119 -141 131 -134 14 9 15 172 1 181
-20 12 -9 25 21 25 26 0 30 -3 23 -17 -5 -10 -10 -80 -12 -156 -3 -100 -7
-137 -15 -134 -7 2 -36 33 -66 68 -118 139 -130 151 -146 145 -14 -5 -16 -20
-12 -93 2 -49 6 -97 8 -108 3 -13 -2 -21 -15 -23 -25 -5 -44 14 -28 30 19 19
16 221 -3 258 -15 30 -15 30 10 30 15 0 34 -4 44 -10z m-646 -261 c-89 -175
-147 -261 -251 -370 -105 -111 -218 -197 -325 -248 -131 -64 -339 -112 -472
-110 -80 1 -73 4 95 39 252 52 516 194 686 368 90 91 218 269 281 390 26 51
49 86 51 79 2 -8 -28 -74 -65 -148z m1642 -169 c130 -162 195 -219 345 -306
101 -59 104 -60 249 -122 117 -51 131 -70 38 -53 -111 20 -241 78 -363 162
-120 82 -292 276 -355 400 -28 56 -41 96 -17 54 6 -11 53 -72 103 -135z
m-1168 -202 c-3 -7 -5 -2 -5 12 0 14 2 19 5 13 2 -7 2 -19 0 -25z m0 -105 c-2
-16 -4 -5 -4 22 0 28 2 40 4 28 2 -13 2 -35 0 -50z m361 -25 c12 -11 17 -48 6
-48 -4 0 -17 11 -30 25 -40 43 -114 24 -114 -30 0 -26 20 -45 76 -74 62 -32
84 -57 84 -95 0 -66 -72 -105 -165 -88 -38 7 -40 9 -42 47 -2 35 -1 38 10 21
37 -58 80 -72 125 -40 17 12 22 24 20 47 -3 28 -11 36 -62 64 -70 36 -86 55
-86 98 0 41 24 73 63 84 35 11 95 5 115 -11z m-2243 -3529 c31 -51 86 -147
122 -216 l65 -124 -16 -72 c-8 -40 -18 -93 -22 -120 -3 -26 -10 -49 -14 -52
-4 -3 -13 17 -20 43 -35 130 -74 264 -124 427 -53 170 -62 205 -52 205 3 0 30
-41 61 -91z"/>
</g>
</svg>
